The.Colossus.Of.New.York.1958.XviD-NvadR  [REMASTERED] 
http://www.imdb.com/title/tt0051484/

SYNOPSIS:

After the accidental death of a brilliant scientist, his 
lunatic father and brother transplant the dead man's brain 
into the body of a giant robot. The operation is successful, 
but the Colossus Robot mourns for his wife and child and 
doesn't want to be the guinea pig in his father's psychotic 
project and starts displaying homicidal behaviors. Sci-Fi 
specialist Eugene Lourio (Gorgo) directs this Frankenstein
-flavored feature.

---------------- SCREENSHOTS ------ 
http://www.uploadup.com/di-EBO7.jpg
 
http://www.uploadup.com/di-WJRV.jpg
 
http://www.uploadup.com/di-QGNL.jpg
 
http://www.uploadup.com/di-6YCR.jpg
 
http://www.uploadup.com/di-IL2U.jpg
 
http://www.uploadup.com/di-8B9N.jpg
-----------------------------------

General
Complete name                    : The.Colossus.Of.New.York.1958.XviD-NvadR
Format                           : AVI
Format/Info                      : Audio Video Interleave
File size                        : 702 MiB
Duration                         : 1h 9mn
Overall bit rate                 : 1 405 Kbps
Writing library                  : VirtualDub-MPEG2 build 24586/release

Video
ID                               : 0
Format                           : MPEG-4 Visual
Format profile                   : Advanced Simple@L5
Format settings, BVOP            : 2
Format settings, QPel            : No
Format settings, GMC             : No warppoints
Format settings, Matrix          : Default (H.263)
Muxing mode                      : Packed bitstream
Codec ID                         : XVID
Codec ID/Hint                    : XviD
Duration                         : 1h 9mn
Bit rate                         : 1 284 Kbps
Width                            : 672 pixels
Height                           : 378 pixels
Display aspect ratio             : 16:9
Frame rate                       : 23.976 fps
Color space                      : YUV
Chroma subsampling               : 4:2:0
Bit depth                        : 8 bits
Scan type                        : Progressive
Compression mode                 : Lossy
Bits/(Pixel*Frame)               : 0.211
Stream size                      : 641 MiB (91%)
Writing library                  : XviD 64

Audio
ID                               : 1
Format                           : AC-3
Format/Info                      : Audio Coding 3
Mode extension                   : CM (complete main)
Codec ID                         : 2000
Duration                         : 1h 9mn
Bit rate mode                    : Constant
Bit rate                         : 112 Kbps
Channel(s)                       : 1 channel
Channel positions                : Front: C
Sampling rate                    : 48.0 KHz
Bit depth                        : 16 bits
Compression mode                 : Lossy
Stream size                      : 55.9 MiB (8%)
Alignment                        : Aligned on interleaves
Interleave, duration             : 42 ms (1.00 video frame)
Interleave, preload duration     : 512 ms

Source [Olive Films Remaster]

Region 1 (U.S) DVD9 (NTSC) B&W 720 x 480 29.970 fps 1.78:1 
Dolby Digital AC3 1.0 CH Monural 384 Kb/s cbr 48.0 KHz

     NO SUBTITLES INCLUDED
     
--------------- CURRENT STATS -------------      
http://torrent-stats.info/c0be/14815aaba.png